<svg width="201" height="92" viewBox="0 0 201 92" fill="none" xmlns="http://www.w3.org/2000/svg">
<path d="M60.5091 0.0399399C54.3891 0.484047 48.5723 2.03301 43.503 4.57851L42.5281 5.06594H32.2053H21.8934L21.6767 4.67599C21.3626 4.08024 20.3986 3.26785 19.6945 2.99705C19.2396 2.8129 18.8388 2.74792 18.1564 2.74792C17.344 2.73708 17.149 2.78041 16.5099 3.0837C13.9211 4.30771 13.282 7.48145 15.1993 9.61533C16.9107 11.5217 20.0953 11.2834 21.5684 9.13873L21.98 8.53214H50.8037H79.6274L79.8332 8.15303C80.1365 7.6006 80.8947 6.93986 81.6096 6.60406C82.1512 6.3441 82.357 6.31161 83.3102 6.31161C84.2743 6.31161 84.4584 6.3441 85.0108 6.6149C87.5888 7.8714 88.1196 11.3159 86.0507 13.2549C84.2309 14.9555 81.2305 14.6088 79.8982 12.5399L79.5516 11.9984H56.3388H33.1261L32.0537 13.1465C27.0277 18.5733 23.3773 25.3866 21.5251 32.7956C20.8319 35.5577 20.2903 38.9156 20.1386 41.3203L20.0736 42.436H27.6559H35.2383L35.5849 41.8944C35.9965 41.2553 36.9064 40.5729 37.6754 40.3129C38.5095 40.0421 39.9068 40.1396 40.6867 40.5296C41.4666 40.9195 42.214 41.6561 42.5931 42.4251C42.9506 43.1509 43.0589 44.3749 42.8531 45.2523C42.6581 46.0755 41.9865 47.007 41.2175 47.5161C40.3834 48.0686 39.8743 48.2202 38.8345 48.2202C38.1521 48.2094 37.8921 48.1552 37.318 47.8844C36.4731 47.4945 35.899 47.007 35.5307 46.3788L35.2491 45.9022H21.5576H7.86608L7.60611 45.4906C6.71789 44.0824 4.83314 43.27 3.30585 43.6275C1.58358 44.0283 0.381236 45.2956 0.0562795 47.0395C-0.257845 48.751 0.771185 50.6249 2.4393 51.4048C4.1724 52.2063 6.50126 51.5348 7.53029 49.9208L7.88774 49.3684H13.9428H19.9978L20.0411 49.6067C20.0736 49.7475 20.1278 50.3216 20.1603 50.8848C20.4419 55.3692 21.6984 60.796 23.464 65.2479C25.2296 69.689 28.0242 74.2926 31.0247 77.7154L31.6096 78.3979H50.912H70.2036L70.4094 78.0187C70.6911 77.4988 71.406 76.8489 72.1209 76.4806C72.6408 76.199 72.7924 76.1773 73.8323 76.1773C74.8722 76.1773 75.0238 76.2098 75.5871 76.4914C78.4684 77.9429 78.7067 81.8641 76.0204 83.5755C74.1898 84.7562 71.6334 84.2146 70.4636 82.3948L70.117 81.8641H47.8791H25.6412L25.5112 81.6366C25.3163 81.2575 24.5255 80.4451 24.1139 80.1851C23.0199 79.5027 21.3626 79.3944 20.1928 79.936C19.3371 80.3368 18.6546 80.9975 18.2322 81.8532C17.9072 82.514 17.8856 82.644 17.8856 83.6513C17.8856 84.5937 17.9181 84.8103 18.178 85.3519C18.7521 86.5759 19.9111 87.4641 21.2651 87.7024C22.0017 87.8433 23.1282 87.67 23.7998 87.3342C24.2547 87.0959 25.1429 86.2618 25.4246 85.8069L25.652 85.4386H32.8119H39.9826L40.9034 85.991C46.0485 89.0998 51.7136 90.9737 58.451 91.7969C60.6607 92.0677 66.7916 92.0677 69.1204 91.7969C79.3349 90.6054 87.4697 86.8684 93.9796 80.3476C95.8102 78.517 97.8466 76.0798 98.0957 75.4191C98.2582 74.9966 98.2257 74.2276 98.0416 73.7618C97.8033 73.2094 83.9276 59.3121 83.2994 59.0088C82.2595 58.4997 81.3388 58.8246 80.3206 60.0703C77.0169 64.0781 72.9224 66.7211 68.568 67.6418C67.3007 67.9017 66.9541 67.9342 64.9502 67.9342C63.1629 67.9234 62.4805 67.8801 61.484 67.6959C59.0034 67.241 56.7071 66.277 54.7465 64.858L53.6958 64.0998H46.7742H39.8527L39.506 64.6305C38.1412 66.7427 35.065 67.046 33.2669 65.2371C31.3063 63.2765 31.8804 59.9403 34.3934 58.7055C35.1733 58.3264 36.5814 58.2397 37.4263 58.5213C38.1629 58.7596 39.0403 59.4312 39.4844 60.092L39.8527 60.6335H48.269H56.6746L57.0429 61.1968C58.7651 63.8073 62.7621 63.504 64.1594 60.6552C64.4302 60.1028 64.4627 59.9295 64.4627 58.9004C64.4627 57.8822 64.4302 57.6981 64.1594 57.1565C63.7911 56.3983 62.8704 55.5101 62.058 55.1309C61.5273 54.8818 61.289 54.8385 60.4549 54.8385C59.6209 54.8385 59.3934 54.8818 58.8518 55.1309C57.9961 55.5317 57.4437 55.9867 57.032 56.6366L56.6854 57.1673H52.6885H48.7023L48.5398 56.7557C47.8358 55.0876 47.2183 52.6288 46.9042 50.1591C46.6443 48.2419 46.6443 43.7791 46.9042 41.8619C47.24 39.2731 47.8899 36.7167 48.6482 35.0053L48.9081 34.4204H56.3713H63.8345L64.1811 34.962C65.026 36.2618 66.7699 36.9984 68.2647 36.6951C69.662 36.4134 70.8752 35.4277 71.3626 34.2037C71.5468 33.7488 71.6009 33.3697 71.6118 32.6331C71.6118 31.7666 71.5793 31.5824 71.276 30.9542C70.8644 30.0876 70.1278 29.3294 69.3046 28.9394C68.1347 28.3762 66.4883 28.4737 65.3834 29.1669C64.9718 29.4269 64.1811 30.2393 63.9861 30.6184L63.8561 30.8458H49.4064H34.9566L34.6317 31.3116C34.1767 31.9724 33.4943 32.5573 32.7903 32.8931C32.2703 33.1314 32.0429 33.1747 31.1546 33.1747C30.2123 33.1747 30.0606 33.1422 29.4107 32.8281C28.555 32.4056 27.8942 31.7232 27.4935 30.8675C27.2335 30.3259 27.201 30.1093 27.201 29.1669C27.201 28.2137 27.2335 28.0079 27.4935 27.4663C27.8618 26.6647 28.6525 25.8848 29.4757 25.4841C30.0498 25.2024 30.2448 25.1699 31.1546 25.1591C32.0429 25.1591 32.2703 25.2024 32.8011 25.4516C33.516 25.7765 34.3826 26.5456 34.6858 27.1088L34.8917 27.488H44.5645H54.2482L55.2989 26.7839C57.032 25.6357 58.841 24.8775 60.8665 24.455C64.0944 23.7834 67.5823 23.9459 70.5069 24.8991C73.9623 26.0257 77.6018 28.6361 80.3206 31.9507C81.3388 33.1964 82.2595 33.5213 83.2994 33.0122C83.9276 32.7089 97.8033 18.8116 98.0416 18.2592C98.2474 17.7501 98.2474 16.9702 98.0524 16.5153C97.9658 16.3203 97.5542 15.7354 97.1425 15.2154C92.2899 9.10623 86.1807 4.79514 78.9341 2.35796C74.1681 0.754845 70.0195 0.094101 64.4086 0.0291061C62.5888 0.01828 60.834 0.01828 60.5091 0.0399399ZM18.9796 5.05511C19.597 5.33674 20.0195 5.92166 20.0845 6.58241C20.1494 7.28648 20.0628 7.58977 19.6512 8.05554C18.2647 9.62617 15.73 8.26134 16.3258 6.26828C16.6616 5.14176 17.9072 4.56767 18.9796 5.05511ZM68.3947 30.8892C68.5572 30.9758 68.8171 31.1816 68.9796 31.3549C70.117 32.5465 69.2721 34.5612 67.6256 34.572C65.5676 34.5937 64.8635 32.0157 66.6183 30.9433C67.0191 30.6942 67.9723 30.6725 68.3947 30.8892ZM4.81148 45.848C5.63471 46.1946 6.02465 46.7796 6.02465 47.6461C6.02465 49.9533 2.72093 50.3108 2.22266 48.0577C2.08184 47.462 2.26599 46.8554 2.74259 46.3246C3.30585 45.7072 4.05325 45.5339 4.81148 45.848ZM61.1915 57.124C61.9931 57.5356 62.3505 58.0772 62.3505 58.9004C62.3505 59.5612 62.1664 59.9403 61.6573 60.3952C60.4441 61.4676 58.5268 60.5469 58.516 58.8896C58.516 57.5248 60.0216 56.5283 61.1915 57.124ZM22.9332 82.0049C23.9406 82.6873 24.1572 83.9871 23.399 84.897C22.9982 85.3736 22.5325 85.5794 21.8609 85.5794C21.1785 85.5794 20.5286 85.1894 20.2036 84.572C19.792 83.803 20.052 82.579 20.7235 82.1024C21.146 81.8099 21.276 81.7774 21.9584 81.7666C22.4241 81.7557 22.6516 81.8099 22.9332 82.0049Z" fill="white"/>
<path d="M115.589 0.126595C115.167 0.321571 114.734 0.722351 114.484 1.17728C114.3 1.53474 114.289 2.10883 114.289 14.4897V27.4338L119.597 27.4663L124.905 27.488L125.111 27.1088C125.414 26.5456 126.28 25.7765 126.995 25.4516C127.515 25.2133 127.764 25.1591 128.588 25.1591C129.465 25.1591 129.638 25.1916 130.288 25.5057C131.166 25.9173 131.87 26.6106 132.292 27.4663C132.563 28.0187 132.595 28.2029 132.595 29.1669C132.595 30.1418 132.563 30.3151 132.281 30.9C131.87 31.7232 131.144 32.449 130.331 32.8497C129.454 33.2722 128.219 33.348 127.309 33.0339C126.464 32.7306 125.706 32.1457 125.23 31.4416L124.84 30.8458H116.423L108.007 30.835L107.628 30.2826C106.545 28.6686 104.302 28.1054 102.515 28.9828C99.9264 30.2501 99.3956 33.608 101.475 35.6227C103.003 37.1067 105.44 37.1283 107.065 35.666C107.346 35.4061 107.682 35.027 107.79 34.8103L108.007 34.4204H111.116H114.235V45.7939V57.1673H106.956H99.6664L99.3198 56.6258C97.5975 53.9936 93.633 54.2861 92.2249 57.1457C91.8999 57.8064 91.8674 57.9472 91.8674 58.9004C91.8674 59.8428 91.8999 59.9945 92.2141 60.6444C92.6473 61.5109 93.4164 62.2692 94.2829 62.6699C95.1278 63.0599 96.536 63.0816 97.4675 62.7133C98.1716 62.4316 98.9948 61.7276 99.3956 61.0777L99.6664 60.6444L114.138 60.6336H128.609L128.967 60.0811C129.378 59.4312 130.093 58.8788 130.916 58.5647C131.794 58.2289 133.224 58.3047 134.058 58.7271C134.848 59.1171 135.509 59.7778 135.932 60.5794C136.257 61.186 136.278 61.2943 136.278 62.3667C136.278 63.3957 136.246 63.569 135.975 64.1214C134.978 66.147 132.617 66.9919 130.613 66.0495C129.844 65.6812 129.292 65.2154 128.891 64.5872L128.588 64.0998H121.406H114.235L114.257 77.2822L114.289 90.4754L114.549 90.9304C114.701 91.1903 115.004 91.5261 115.243 91.6886L115.676 91.9919H139.734C161.961 91.9919 163.932 91.9811 165.633 91.7969C173.432 90.9953 178.967 89.2406 183.527 86.121L184.534 85.4386H188.412H192.279L192.485 85.8177C192.788 86.3701 193.546 87.0417 194.261 87.3667C194.727 87.5833 195.095 87.6591 195.767 87.6916C197.186 87.7566 198.128 87.3558 199.082 86.316C199.764 85.5469 200.056 84.7562 200.056 83.6513C200.056 82.4815 199.764 81.7341 198.973 80.8892C197.717 79.5352 195.929 79.1778 194.229 79.9576C193.546 80.2609 192.777 80.9434 192.485 81.4849L192.279 81.8641H163.455H134.632L134.231 82.449C133.754 83.1422 133.321 83.4997 132.455 83.9005C131.935 84.1496 131.696 84.1929 130.862 84.1929C130.028 84.1929 129.79 84.1496 129.27 83.9005C128.403 83.4997 127.624 82.7414 127.201 81.8749C126.887 81.2358 126.854 81.0733 126.854 80.1851C126.854 79.3186 126.898 79.1344 127.19 78.5062C127.602 77.6396 128.328 76.8922 129.162 76.4806C129.714 76.2098 129.898 76.1773 130.862 76.1773C131.761 76.1773 132.032 76.2206 132.476 76.4265C133.213 76.7622 133.928 77.3688 134.307 77.9862L134.632 78.5062H162.567H190.503L190.979 77.4988C191.9 75.5382 192.55 73.3285 192.951 70.8155C193.221 69.0608 193.221 64.2731 192.951 62.4316C192.203 57.4923 190.145 53.0729 187.156 49.9858L186.549 49.3684H174.84H163.13L162.708 49.9641C162.231 50.6357 161.257 51.3506 160.563 51.5564C159.913 51.7406 158.689 51.7189 158.05 51.5023C156.837 51.0907 155.765 49.8991 155.44 48.6101C154.974 46.7796 155.895 44.8515 157.628 43.9958C158.213 43.7141 158.364 43.6816 159.404 43.6816C160.444 43.6816 160.596 43.7141 161.116 43.9849C161.831 44.3532 162.546 45.0031 162.827 45.5231L163.033 45.9022H176.735H190.438L190.741 46.3788C191.153 47.0287 191.802 47.6028 192.539 47.9494C193.059 48.1877 193.286 48.231 194.175 48.231C195.074 48.231 195.29 48.1877 195.864 47.9277C196.698 47.5378 197.533 46.7037 197.933 45.848C198.204 45.2848 198.237 45.0681 198.237 44.1691C198.237 43.2159 198.204 43.0751 197.879 42.4143C197.164 40.952 195.864 40.1288 194.229 40.1179C192.777 40.0963 191.586 40.7137 190.817 41.8727L190.448 42.436H185.65C183.007 42.436 180.851 42.4143 180.851 42.3926C180.851 42.3601 181.371 41.8944 182 41.3419C185.585 38.2224 188.044 33.9113 188.975 29.1127C189.398 26.9789 189.539 23.3177 189.3 21.1513C188.965 18.1942 188.055 15.2696 186.711 12.8974L186.213 11.9984H165.254H144.283L143.904 12.5616C141.878 15.5729 137.242 14.598 136.549 11.0235C136.213 9.27954 137.199 7.38396 138.845 6.62573C139.452 6.3441 139.647 6.31161 140.557 6.31161C141.445 6.31161 141.672 6.35493 142.192 6.59323C142.94 6.95068 143.622 7.54644 143.99 8.18552L144.272 8.66212L166.51 8.62963L188.748 8.59714L189.105 9.1279C190.838 11.7059 194.803 11.3918 196.2 8.55381C196.471 8.00138 196.504 7.82807 196.504 6.79904C196.504 5.78085 196.471 5.5967 196.2 5.05511C195.875 4.38353 194.987 3.47365 194.326 3.13786C192.496 2.21715 190.167 2.83456 189.073 4.53517L188.726 5.06594H183.96H179.205L178.588 4.69765C175.392 2.76958 170.875 1.28561 166.044 0.570702C162.329 0.0291061 163.25 0.0399399 138.77 0.00744629C119.792 -0.0142212 115.86 0.00744629 115.589 0.126595ZM193.178 5.01178C193.991 5.3584 194.391 5.94332 194.391 6.79904C194.391 7.41646 194.229 7.8064 193.774 8.22885C192.582 9.35537 190.578 8.52131 190.568 6.87486C190.546 5.42339 191.878 4.48102 193.178 5.01178ZM156.068 21.9095C159.307 22.397 161.278 23.9351 161.971 26.5239C162.221 27.4663 162.221 29.5677 161.971 30.4992C161.668 31.6366 161.257 32.3623 160.498 33.1314C159.643 33.9871 158.635 34.5395 157.14 34.9403L156.101 35.2219L149.255 35.2653C143.026 35.2978 142.377 35.2869 142.052 35.1136C141.553 34.8645 141.326 34.6478 141.088 34.1821C140.893 33.803 140.882 33.4672 140.882 28.517C140.882 23.5668 140.893 23.231 141.088 22.8519C141.315 22.4078 141.542 22.1803 142.019 21.9312C142.301 21.7795 143.113 21.7579 148.681 21.7471C153.696 21.7471 155.234 21.7795 156.068 21.9095ZM105.288 30.9975C106.794 31.8857 106.371 34.2254 104.627 34.5828C103.848 34.7453 102.894 34.2037 102.526 33.3913C102.299 32.8931 102.277 32.6764 102.429 32.124C102.764 30.9217 104.194 30.3584 105.288 30.9975ZM194.998 42.4251C196.157 42.9559 196.493 44.4832 195.659 45.4364C195.052 46.1296 194.12 46.3138 193.319 45.9022C191.9 45.1873 191.9 43.1509 193.33 42.4468C193.904 42.1652 194.413 42.1652 194.998 42.4251ZM158.809 55.9867C162.058 56.3116 164.159 57.4815 165.199 59.5395C165.73 60.6011 165.925 61.5868 165.925 63.179C165.903 66.8294 164.268 68.9524 160.726 69.9273L159.675 70.2089L151.042 70.2523C143.156 70.2848 142.377 70.2631 142.052 70.1006C141.553 69.8515 141.326 69.6349 141.088 69.1691C140.893 68.79 140.882 68.4433 140.882 63.1141C140.882 56.9399 140.871 57.1024 141.521 56.4741C142.149 55.8675 142.041 55.8783 150.154 55.8675C154.822 55.8675 158.072 55.9108 158.809 55.9867ZM96.7959 57.189C97.5758 57.5898 97.9983 58.4238 97.8358 59.2687C97.6733 60.1245 96.7851 60.8502 95.8969 60.8502C94.5104 60.8502 93.5572 59.2904 94.1855 58.0556C94.6946 57.0482 95.7994 56.6907 96.7959 57.189ZM196.893 81.9291C197.305 82.1349 197.728 82.6765 197.857 83.1747C198.074 83.9763 197.738 84.7995 196.991 85.3086C196.482 85.6552 195.377 85.6227 194.846 85.2328C194.131 84.7345 193.85 83.5863 194.24 82.7631C194.684 81.8316 195.929 81.4416 196.893 81.9291Z" fill="white"/>
<path d="M82.3679 8.53214C81.4147 9.04124 81.0464 10.1894 81.523 11.1751C82.3571 12.9082 84.8376 12.5399 85.2492 10.6227C85.4117 9.86447 84.8159 8.78128 84.0468 8.46715C83.5594 8.26135 82.8337 8.28301 82.3679 8.53214Z" fill="white"/>
<path d="M139.744 8.48878C138.445 9.16036 138.163 10.6552 139.138 11.6734C140.069 12.6482 141.694 12.4208 142.301 11.2184C142.626 10.5793 142.561 9.68029 142.138 9.12786C141.586 8.41296 140.47 8.10967 139.744 8.48878Z" fill="white"/>
<path d="M30.5913 27.2713C29.4107 27.6287 28.8366 29.0585 29.454 30.1417C30.1906 31.4524 31.9887 31.4957 32.8444 30.2284C33.8517 28.7227 32.3353 26.7405 30.5913 27.2713Z" fill="white"/>
<path d="M127.829 27.3688C126.93 27.7696 126.432 28.7336 126.67 29.6218C126.909 30.51 127.537 31.0625 128.425 31.1491C130.245 31.3224 131.306 29.0694 129.996 27.8021C129.357 27.1738 128.587 27.0222 127.829 27.3688Z" fill="white"/>
<path d="M38.0004 42.4468C37.2205 42.8368 36.7981 43.79 37.0147 44.6673C37.383 46.108 39.0944 46.6387 40.221 45.653C41.9866 44.1041 40.1126 41.4069 38.0004 42.4468Z" fill="white"/>
<path d="M158.451 45.913C156.87 46.7146 157.097 49.0326 158.809 49.5417C159.534 49.7475 160.098 49.6175 160.672 49.1192C161.636 48.2744 161.571 46.8445 160.531 46.0538C159.989 45.6422 159.101 45.5772 158.451 45.913Z" fill="white"/>
<path d="M35.3791 60.5361C35.0325 60.6769 34.5342 61.1426 34.3392 61.5218C34.0901 61.9875 34.1442 62.8757 34.4475 63.3848C35.1949 64.6522 37.0797 64.663 37.8163 63.4173C38.6178 62.0417 37.6754 60.3952 36.1048 60.4277C35.8557 60.4277 35.5307 60.4819 35.3791 60.5361Z" fill="white"/>
<path d="M131.371 60.6444C130.591 61.0343 130.169 61.9875 130.386 62.8649C130.754 64.3056 132.465 64.8363 133.592 63.8506C135.357 62.3017 133.484 59.6045 131.371 60.6444Z" fill="white"/>
<path d="M73.02 78.3545C71.8934 78.9394 71.536 80.1851 72.1967 81.2249C72.89 82.319 74.3631 82.4706 75.2513 81.5391C76.0529 80.6942 76.0204 79.5027 75.1647 78.7011C74.6014 78.1704 73.6699 78.0187 73.02 78.3545Z" fill="white"/>
<path d="M130.104 78.3329C129.671 78.517 129.129 79.1453 128.967 79.6435C128.523 81.0083 129.92 82.4706 131.306 82.1024C131.577 82.0265 131.935 81.8641 132.119 81.7341C132.53 81.4308 132.866 80.7159 132.866 80.1743C132.866 79.6977 132.563 78.9719 132.26 78.7011C131.707 78.2137 130.743 78.0512 130.104 78.3329Z" fill="white"/>
</svg>
