<svg width="91" height="91" viewBox="0 0 91 91" fill="none" xmlns="http://www.w3.org/2000/svg">
<circle cx="45.5" cy="45.5" r="43.5" stroke="#FFF3F3" stroke-width="4"/>
<path d="M45.109 36.3004C39.8118 36.3004 35.5206 40.5938 35.5206 45.8889C35.5206 51.1861 39.8118 55.4794 45.109 55.4794C50.4021 55.4794 54.6975 51.1861 54.6975 45.8889C54.6975 40.5938 50.4021 36.3004 45.109 36.3004ZM45.109 52.1194C41.6681 52.1194 38.8785 49.3298 38.8785 45.891C38.8785 42.4501 41.6681 39.6625 45.109 39.6625C48.5499 39.6625 51.3354 42.4501 51.3354 45.891C51.3354 49.3298 48.5499 52.1194 45.109 52.1194Z" fill="white"/>
<path d="M55.0791 38.1837C56.3139 38.1837 57.315 37.1827 57.315 35.9479C57.315 34.713 56.3139 33.712 55.0791 33.712C53.8443 33.712 52.8433 34.713 52.8433 35.9479C52.8433 37.1827 53.8443 38.1837 55.0791 38.1837Z" fill="white"/>
<path d="M62.8092 33.6746C61.8365 31.1671 59.8557 29.1843 57.3482 28.2157C55.8984 27.6702 54.3656 27.3778 52.8142 27.3446C50.8169 27.2575 50.1843 27.2326 45.1194 27.2326C40.0545 27.2326 39.4053 27.2326 37.4246 27.3446C35.8773 27.3757 34.3446 27.6681 32.8948 28.2157C30.3852 29.1843 28.4045 31.1671 27.4338 33.6746C26.8883 35.1265 26.5959 36.6572 26.5648 38.2086C26.4756 40.2038 26.4486 40.8364 26.4486 45.9034C26.4486 50.9683 26.4486 51.6133 26.5648 53.5982C26.5959 55.1496 26.8883 56.6803 27.4338 58.1342C28.4065 60.6397 30.3873 62.6225 32.8969 63.5932C34.3405 64.1573 35.8732 64.4767 37.4288 64.5265C39.4261 64.6136 40.0587 64.6406 45.1236 64.6406C50.1885 64.6406 50.8376 64.6406 52.8184 64.5265C54.3677 64.4954 55.9005 64.2009 57.3523 63.6575C59.8599 62.6847 61.8406 60.704 62.8133 58.1964C63.3588 56.7446 63.6513 55.2139 63.6824 53.6625C63.7716 51.6672 63.7985 51.0346 63.7985 45.9677C63.7985 40.9007 63.7985 40.2578 63.6824 38.2729C63.6554 36.7007 63.3651 35.1431 62.8092 33.6746ZM60.283 53.4447C60.2685 54.6394 60.0528 55.8237 59.6379 56.9458C59.0053 58.5781 57.7173 59.8681 56.0871 60.4945C54.9775 60.9072 53.8077 61.1229 52.6234 61.1395C50.6531 61.2308 50.0972 61.2536 45.0448 61.2536C39.9882 61.2536 39.4717 61.2536 37.464 61.1395C36.2839 61.125 35.1099 60.9072 34.0024 60.4945C32.3659 59.8702 31.0696 58.5801 30.4371 56.9458C30.0305 55.8382 29.8107 54.6664 29.792 53.4841C29.7028 51.5138 29.6821 50.9579 29.6821 45.9055C29.6821 40.8509 29.6821 40.3345 29.792 38.3247C29.8065 37.1301 30.0222 35.9478 30.4371 34.8258C31.0696 33.1893 32.3659 31.9013 34.0024 31.2749C35.1099 30.8643 36.2839 30.6465 37.464 30.6299C39.4365 30.5407 39.9902 30.5158 45.0448 30.5158C50.0993 30.5158 50.6178 30.5158 52.6234 30.6299C53.8077 30.6444 54.9775 30.8622 56.0871 31.2749C57.7173 31.9034 59.0053 33.1935 59.6379 34.8258C60.0445 35.9333 60.2643 37.1052 60.283 38.2874C60.3722 40.2598 60.395 40.8136 60.395 45.8681C60.395 50.9206 60.395 51.464 60.3058 53.4468H60.283V53.4447Z" fill="white"/>
</svg>
