<svg width="91" height="91" viewBox="0 0 91 91" fill="none" xmlns="http://www.w3.org/2000/svg">
<circle cx="45.5" cy="45.5" r="43.5" stroke="#FFF3F3" stroke-width="4"/>
<g clip-path="url(#clip0)">
<path d="M66.92 33.4824C64.0792 33.4824 61.458 32.5413 59.3532 30.9536C56.9392 29.1336 55.2047 26.4639 54.5922 23.3868C54.4405 22.6265 54.3589 21.842 54.3511 21.0379H46.236V43.2124L46.2262 55.3583C46.2262 58.6056 44.1117 61.3589 41.1804 62.3272C40.3297 62.6082 39.411 62.7414 38.4543 62.6889C37.2332 62.6218 36.0889 62.2533 35.0943 61.6584C32.9778 60.3925 31.5428 58.0961 31.5039 55.4692C31.4426 51.3635 34.7618 48.0161 38.8646 48.0161C39.6744 48.0161 40.4522 48.1483 41.1804 48.3885V42.3277V40.1489C40.4124 40.0352 39.6307 39.9758 38.8403 39.9758C34.3496 39.9758 30.1496 41.8425 27.1474 45.2054C24.8782 47.7468 23.5171 50.9892 23.3071 54.389C23.0319 58.8554 24.6662 63.1011 27.8357 66.2336C28.3014 66.6935 28.7904 67.1203 29.3018 67.514C32.0192 69.6053 35.3412 70.7389 38.8403 70.7389C39.6307 70.7389 40.4124 70.6806 41.1804 70.5668C44.449 70.0827 47.4649 68.5864 49.8449 66.2336C52.7693 63.3432 54.3851 59.5058 54.4026 55.4215L54.3608 37.2838C55.756 38.36 57.2814 39.2506 58.9186 39.9418C61.4649 41.0161 64.1647 41.5606 66.9433 41.5596V35.667V33.4804C66.9453 33.4824 66.9219 33.4824 66.92 33.4824Z" fill="white"/>
</g>
<defs>
<clipPath id="clip0">
<rect width="49.7778" height="49.7778" fill="white" transform="translate(20.2222 21)"/>
</clipPath>
</defs>
</svg>
