<svg width="91" height="91" viewBox="0 0 91 91" fill="none" xmlns="http://www.w3.org/2000/svg">
<circle cx="45.5" cy="45.5" r="43.5" stroke="#FFF3F3" stroke-width="4"/>
<path d="M61.0959 37.5484C61.122 37.9 61.122 38.2496 61.122 38.5992C61.122 49.2985 52.9785 61.6273 38.0959 61.6273C33.5108 61.6273 29.2512 60.2992 25.6667 57.9926C26.3177 58.0669 26.9445 58.093 27.6217 58.093C31.4051 58.093 34.8871 56.8152 37.67 54.6351C34.1116 54.5608 31.1298 52.23 30.1011 49.0233C30.6014 49.0976 31.1037 49.1478 31.6301 49.1478C32.3555 49.1478 33.0848 49.0474 33.762 48.8726C30.0509 48.1211 27.2721 44.8641 27.2721 40.93V40.8295C28.351 41.4303 29.6028 41.806 30.9289 41.8562C28.7489 40.4055 27.3203 37.9241 27.3203 35.1172C27.3203 33.6142 27.7201 32.2359 28.4214 31.0344C32.4057 35.943 38.3953 39.1518 45.1103 39.5034C44.9857 38.9006 44.9093 38.2757 44.9093 37.6488C44.9093 33.1883 48.518 29.5555 53.0026 29.5555C55.3334 29.5555 57.4371 30.532 58.9159 32.1113C60.7443 31.7597 62.4964 31.0826 64.0515 30.1563C63.4508 32.035 62.1709 33.6142 60.4931 34.6169C62.1227 34.4401 63.7019 33.99 65.1526 33.3631C64.0515 34.9665 62.6752 36.3951 61.0959 37.5484Z" fill="white"/>
</svg>
