<svg width="91" height="91" viewBox="0 0 91 91" fill="none" xmlns="http://www.w3.org/2000/svg">
<circle cx="45.5" cy="45.5" r="43.5" stroke="#FFF3F3" stroke-width="4"/>
<path d="M65.0622 35.5375C64.6001 33.8136 63.2438 32.4533 61.5219 31.9892C58.3754 31.1252 45.7874 31.1111 45.7874 31.1111C45.7874 31.1111 33.2014 31.0971 30.0529 31.9229C28.3651 32.383 26.9707 33.7734 26.5045 35.4953C25.6747 38.6418 25.6667 45.1679 25.6667 45.1679C25.6667 45.1679 25.6586 51.7261 26.4824 54.8405C26.9445 56.5624 28.3008 57.9227 30.0247 58.3868C33.2034 59.2508 45.7572 59.2649 45.7572 59.2649C45.7572 59.2649 58.3453 59.2789 61.4918 58.4551C63.2117 57.993 64.574 56.6347 65.0421 54.9128C65.874 51.7683 65.88 45.2443 65.88 45.2443C65.88 45.2443 65.9202 38.684 65.0622 35.5375ZM41.7608 51.2138L41.7709 39.1582L52.2331 45.196L41.7608 51.2138Z" fill="#FFFEFE"/>
</svg>
