<svg width="62" height="62" viewBox="0 0 62 62" fill="none" xmlns="http://www.w3.org/2000/svg">
<path d="M31 5.1665C16.7555 5.1665 5.16669 16.7553 5.16669 30.9998C5.16669 45.2443 16.7555 56.8332 31 56.8332C45.2445 56.8332 56.8334 45.2443 56.8334 30.9998C56.8334 16.7553 45.2445 5.1665 31 5.1665ZM31 51.6665C19.6049 51.6665 10.3334 42.3949 10.3334 30.9998C10.3334 19.6048 19.6049 10.3332 31 10.3332C42.3951 10.3332 51.6667 19.6048 51.6667 30.9998C51.6667 42.3949 42.3951 51.6665 31 51.6665Z" fill="white"/>
<path d="M23.25 43.9168L43.9167 31.0002L23.25 18.0835V43.9168Z" fill="white"/>
</svg>
