<svg width="108" height="108" viewBox="0 0 108 108" fill="none" xmlns="http://www.w3.org/2000/svg">
<path d="M108 54C108 83.8234 83.8234 108 54 108C38.2783 108 24.1259 101.282 14.2582 90.5591C11.6662 87.7445 9.37175 84.6521 7.41894 81.335C2.70441 73.3166 0 63.9735 0 54C0 24.1766 24.1766 0 54 0C63.9757 0 73.3188 2.70441 81.335 7.42114C84.6521 9.37175 87.7423 11.6662 90.5569 14.2604C101.28 24.1237 108 38.2783 108 54Z" fill="#F0CD00"/>
<path d="M108 54.0001C108 83.1513 84.9034 106.907 56.0101 107.963C27.1168 106.907 4.02026 83.1513 4.02026 54.0001C4.02026 24.8489 27.1168 1.09335 56.0101 0.0375977C84.9034 1.09335 108 24.8489 108 54.0001Z" fill="#FFDE50"/>
<path d="M90.5569 14.2607L14.2582 90.5593C11.6662 87.7447 9.37176 84.6524 7.41895 81.3353L81.335 7.42139C84.6522 9.372 87.7423 11.6664 90.5569 14.2607Z" fill="#FFEA94"/>
<path d="M104.275 34.2581L34.2558 104.277C29.2989 102.329 24.6989 99.6686 20.5839 96.422L96.422 20.584C99.6686 24.699 102.329 29.2989 104.275 34.2581Z" fill="#FFEA94"/>
<path d="M95.9613 53.9999C95.9613 77.1736 77.1737 95.9612 54 95.9612C45.9287 95.9612 38.3907 93.6822 31.9922 89.7325C29.2041 88.0133 26.6341 85.9745 24.3287 83.669C22.6337 81.9763 21.082 80.1359 19.6957 78.1721C17.7869 75.4676 16.189 72.5274 14.9569 69.4042C13.1319 64.7867 12.1048 59.7658 12.0431 54.5156C12.0387 54.3437 12.0387 54.1718 12.0387 53.9999C12.0387 30.8262 30.8241 12.0386 54 12.0386C54.1719 12.0386 54.346 12.0386 54.518 12.043C59.7681 12.1047 64.7868 13.134 69.4043 14.9568C72.5275 16.1911 75.4678 17.7868 78.1722 19.6956C80.136 21.0841 81.9742 22.6336 83.6691 24.3285C85.9746 26.6318 88.0134 29.204 89.7326 31.9921C93.6823 38.3906 95.9613 45.9285 95.9613 53.9999Z" fill="#FAA300"/>
<path d="M83.6691 24.3285L24.3287 83.669C22.6337 81.9763 21.082 80.1359 19.6957 78.172C17.7869 75.4676 16.189 72.5274 14.9569 69.4042C13.1319 64.7867 12.1048 59.7658 12.0431 54.5156C12.0387 54.3437 12.0387 54.1718 12.0387 53.9999C12.0387 30.8262 30.8241 12.0386 54 12.0386C54.1719 12.0386 54.346 12.0386 54.518 12.043C59.7681 12.1047 64.7868 13.134 69.4043 14.9568C72.5275 16.1911 75.4678 17.7868 78.1722 19.6956C80.136 21.0841 81.9742 22.6336 83.6691 24.3285Z" fill="#FFBD00"/>
<path d="M95.9602 53.9999C95.9602 77.1736 77.1726 95.9612 53.9988 95.9612C53.2032 95.9612 52.4141 95.9391 51.6295 95.8951C73.7011 94.6674 91.2192 76.3779 91.2192 53.9999C91.2192 31.6218 73.7011 13.3324 51.6295 12.1047C52.4141 12.0606 53.2032 12.0386 53.9988 12.0386C77.1726 12.0386 95.9602 30.8262 95.9602 53.9999Z" fill="#F68E00"/>
<path d="M73.0695 64.5943C73.0695 58.9979 70.1771 54.0674 65.811 51.2098C67.6051 48.7374 68.6671 45.7009 68.6671 42.4194C68.6671 36.7525 65.5082 31.8105 60.8593 29.2589V23.8252C60.8593 21.3905 58.8858 19.417 56.4512 19.417C54.0165 19.417 52.043 21.3905 52.043 23.8252V27.4169H46.7228V23.8252C46.7228 21.3905 44.7493 19.417 42.3146 19.417C39.88 19.417 37.9065 21.3905 37.9065 23.8252V27.4169H32.7262C30.2916 27.4169 28.3181 29.3905 28.3181 31.8251C28.3181 34.2597 30.2916 36.2333 32.7262 36.2333H34.2475V53.014V71.7666H32.7262C30.2916 71.7666 28.3181 73.7401 28.3181 76.1747C28.3181 78.6094 30.2916 80.5829 32.7262 80.5829H37.9067V84.1747C37.9067 86.6093 39.8802 88.5828 42.3149 88.5828C44.7495 88.5828 46.723 86.6093 46.723 84.1747V80.5829H52.0432V84.1747C52.0432 86.6093 54.0168 88.5828 56.4514 88.5828C58.886 88.5828 60.8596 86.6093 60.8596 84.1747V80.128C67.8573 78.4253 73.0695 72.1089 73.0695 64.5943ZM43.0638 36.2333H53.6646C57.0758 36.2333 59.8507 39.0084 59.8507 42.4194C59.8507 45.8305 57.0756 48.6056 53.6646 48.6056H43.0638V36.2333ZM57.0811 71.7666H43.0638V57.4222H53.6646H57.0811C61.0357 57.4222 64.2532 60.6397 64.2532 64.5945C64.2532 68.5493 61.0357 71.7666 57.0811 71.7666Z" fill="#F68E00"/>
<path d="M78.5799 64.5943C78.5799 58.9979 75.6875 54.0674 71.3214 51.2098C73.1156 48.7374 74.1775 45.7009 74.1775 42.4194C74.1775 36.7525 71.0186 31.8105 66.3698 29.2589V23.8252C66.3698 21.3905 64.3962 19.417 61.9616 19.417C59.527 19.417 57.5534 21.3905 57.5534 23.8252V27.4169H52.2332V23.8252C52.2332 21.3905 50.2597 19.417 47.825 19.417C45.3904 19.417 43.4169 21.3905 43.4169 23.8252V27.4169H38.2364C35.8018 27.4169 33.8282 29.3905 33.8282 31.8251C33.8282 34.2597 35.8018 36.2333 38.2364 36.2333H39.7577V53.014V71.7666H38.2364C35.8018 71.7666 33.8282 73.7401 33.8282 76.1747C33.8282 78.6094 35.8018 80.5829 38.2364 80.5829H43.4169V84.1747C43.4169 86.6093 45.3904 88.5828 47.825 88.5828C50.2597 88.5828 52.2332 86.6093 52.2332 84.1747V80.5829H57.5534V84.1747C57.5534 86.6093 59.527 88.5828 61.9616 88.5828C64.3962 88.5828 66.3698 86.6093 66.3698 84.1747V80.128C73.3679 78.4253 78.5799 72.1089 78.5799 64.5943ZM48.5742 36.2333H59.175C62.5862 36.2333 65.3612 39.0084 65.3612 42.4194C65.3612 45.8305 62.586 48.6056 59.175 48.6056H48.5742V36.2333ZM62.5915 71.7666H48.5742V57.4222H59.175H62.5915C66.5461 57.4222 69.7636 60.6397 69.7636 64.5945C69.7636 68.5493 66.5463 71.7666 62.5915 71.7666Z" fill="#FFEA94"/>
</svg>
