<svg width="108" height="108" viewBox="0 0 108 108" fill="none" xmlns="http://www.w3.org/2000/svg">
<path d="M57.8513 91.2611V104.836H33.727V91.2611C33.727 89.5149 35.1977 88.0977 37.0148 88.0977H54.5633C56.3784 88.0979 57.8513 89.5149 57.8513 91.2611Z" fill="#F6F6F6"/>
<path d="M57.8513 91.2614V104.836H45.7892V88.0981H54.5635C56.3784 88.0981 57.8513 89.5152 57.8513 91.2614Z" fill="#EFEFEF"/>
<path d="M76.4067 26.604H8.77863C3.93893 26.604 0 30.3937 0 35.0501V81.5899L45.789 87.9168L91.5781 81.5899V25.7695L76.4067 26.604Z" fill="#D7FFFF"/>
<path d="M76.4067 26.6043H45.7892V87.917L91.5783 81.5902V25.77L76.4067 26.6043Z" fill="#98F9FF"/>
<path d="M91.5783 81.5898V85.9786C91.5783 90.6372 87.6393 94.4248 82.7996 94.4248H8.77863C3.93893 94.4248 0 90.6372 0 85.9786V81.5898H91.5783Z" fill="#454554"/>
<path d="M66.6671 104.837C66.6671 106.583 65.1964 108 63.3793 108H28.1967C26.3819 108 24.909 106.583 24.909 104.837C24.909 103.089 26.3819 101.673 28.1967 101.673H63.3791C65.1964 101.673 66.6671 103.088 66.6671 104.837Z" fill="#454554"/>
<path d="M66.6671 104.837C66.6671 106.583 65.1964 108 63.3793 108H45.7892V101.673H63.3793C65.1964 101.673 66.6671 103.088 66.6671 104.837Z" fill="#2E2E2E"/>
<path d="M91.5783 81.5898V85.9786C91.5783 90.6372 87.6393 94.4248 82.7996 94.4248H45.7892V81.5898H91.5783Z" fill="#2E2E2E"/>
<path d="M67.3253 24.2598L61.0436 29.2041C58.4512 31.2376 56.866 34.2498 56.6952 37.4687C56.5244 40.6855 57.7834 43.839 60.148 46.1171C62.3704 48.2581 65.3941 49.4583 68.5229 49.4583C68.72 49.4583 68.9148 49.452 69.1119 49.4436C72.4465 49.2833 75.571 47.7624 77.6882 45.2712L82.8336 39.1984L81.1148 25.5212L67.3253 24.2598Z" fill="#FF9D21"/>
<path d="M106.358 11.4242L82.8336 39.1984L67.3252 24.2598L96.1392 1.58401C99.0381 -0.696221 103.22 -0.493721 105.865 2.05651C108.512 4.60464 108.722 8.63143 106.358 11.4242Z" fill="#2E2E2E"/>
<path d="M62.4602 61.4819C59.9926 63.8592 56.3296 64.9708 51.5761 64.7873C49.2509 64.6966 47.3372 64.8738 45.7893 65.1712C42.0452 65.8884 40.4578 67.3059 40.4381 67.3249C40.1162 67.635 39.6959 67.7889 39.2755 67.7889C38.8551 67.7889 38.4347 67.635 38.115 67.3249C37.4735 66.7068 37.4735 65.7049 38.115 65.0889C38.1304 65.0721 41.0687 61.9966 40.7512 54.3564C40.5585 49.777 41.7146 46.248 44.1822 43.8707C44.6857 43.3856 45.2222 42.9447 45.7893 42.5524C47.97 41.04 50.5799 40.2236 53.3212 40.2236C56.774 40.2236 60.0189 41.5188 62.4602 43.8707C67.5005 48.7265 67.5005 56.6261 62.4602 61.4819Z" fill="#FFD845"/>
<path d="M62.4602 61.4819C59.9927 63.8592 56.3296 64.9708 51.5762 64.7873C49.2509 64.6966 47.3373 64.8738 45.7893 65.1712V42.5524C47.97 41.04 50.5799 40.2236 53.3212 40.2236C56.7741 40.2236 60.0189 41.5188 62.4602 43.8707C67.5005 48.7265 67.5005 56.6261 62.4602 61.4819Z" fill="#FFD845"/>
</svg>
