<svg width="108" height="108" viewBox="0 0 108 108" fill="none" xmlns="http://www.w3.org/2000/svg">
<path d="M88.2393 0.433873C76.4973 -1.57797 50.6296 3.00821 46.0509 22.6246C43.0069 35.6668 43.0963 46.3067 35.414 46.5064C30.843 46.6252 28.4594 37.1434 22.1483 36.3635C13.9118 35.3456 8.19585 42.2156 4.62847 48.4371C-3.21947 62.1238 -0.765417 85.3983 9.55471 96.7484C34.5483 124.236 64.2291 95.4908 76.9194 73.0169C85.0584 58.6031 103.421 46.9518 107.245 30.7033C110.447 17.1002 103.342 3.02153 88.2393 0.433873Z" fill="url(#paint0_linear)"/>
<path opacity="0.1" d="M96.0759 95.4447H11.9244C10.177 95.4447 8.76031 94.0256 8.76031 92.2751V25.8688C8.76031 24.1184 10.177 22.6992 11.9244 22.6992H96.0759C97.8233 22.6992 99.24 24.1184 99.24 25.8688V92.2751C99.24 94.0258 97.8235 95.4447 96.0759 95.4447Z" fill="#2626BC"/>
<path d="M99.24 20.798V87.203C99.24 88.9548 97.8225 90.3726 96.0759 90.3726H11.9244C10.1778 90.3726 8.76031 88.9548 8.76031 87.203V20.798C8.76031 19.0463 10.1778 17.6284 11.9244 17.6284H96.0759C97.8225 17.6284 99.24 19.0463 99.24 20.798Z" fill="white"/>
<path d="M66.5455 54.557H51.3894C50.7361 54.557 50.2067 54.0266 50.2067 53.3722V38.1897C50.2067 37.5353 50.7361 37.0049 51.3894 37.0049H66.5455C67.1988 37.0049 67.7282 37.5353 67.7282 38.1897V53.3722C67.7282 54.0264 67.1988 54.557 66.5455 54.557Z" fill="#01ECA5"/>
<path d="M89.7899 54.557H74.6338C73.9806 54.557 73.4511 54.0266 73.4511 53.3722V38.1897C73.4511 37.5353 73.9806 37.0049 74.6338 37.0049H89.7899C90.4432 37.0049 90.9727 37.5353 90.9727 38.1897V53.3722C90.9727 54.0264 90.4432 54.557 89.7899 54.557Z" fill="#9FB0FE"/>
<path d="M66.5455 76.9066H51.3894C50.7361 76.9066 50.2067 76.3763 50.2067 75.7218V60.5393C50.2067 59.8849 50.7361 59.3545 51.3894 59.3545H66.5455C67.1988 59.3545 67.7282 59.8849 67.7282 60.5393V75.7218C67.7282 76.3763 67.1988 76.9066 66.5455 76.9066Z" fill="#FFA8CF"/>
<path d="M89.7899 76.9066H74.6338C73.9806 76.9066 73.4511 76.3763 73.4511 75.7218V60.5393C73.4511 59.8849 73.9806 59.3545 74.6338 59.3545H89.7899C90.4432 59.3545 90.9727 59.8849 90.9727 60.5393V75.7218C90.9727 76.3763 90.4432 76.9066 89.7899 76.9066Z" fill="#01ECA5"/>
<path d="M67.7279 82.8905V90.3729H50.2075V82.8905C50.2075 82.2355 50.7369 81.7051 51.3887 81.7051H66.5446C67.1985 81.7051 67.7279 82.2355 67.7279 82.8905Z" fill="#B7C5FF"/>
<path d="M90.9733 82.89V90.3724H73.4507V82.89C73.4507 82.235 73.9801 81.7046 74.634 81.7046H89.7899C90.4438 81.7046 90.9733 82.235 90.9733 82.89Z" fill="#02FFB3"/>
<path d="M42.9519 17.6279H11.9244C10.177 17.6279 8.76031 19.0471 8.76031 20.7975V87.2038C8.76031 88.9543 10.177 90.3734 11.9244 90.3734H42.9521V17.6279H42.9519Z" fill="#FF7EB8"/>
<path d="M8.76031 59.3765H42.9521V76.2731H8.76031V59.3765Z" fill="#FFA8CF"/>
<path d="M99.24 32.2742V20.7975C99.24 19.0471 97.8233 17.6279 96.0759 17.6279H11.9244C10.177 17.6279 8.76031 19.0471 8.76031 20.7975V32.2742H99.24Z" fill="#8399FE"/>
<path d="M96.0759 91.4298H11.9244C9.59816 91.4298 7.70563 89.534 7.70563 87.2037V20.7974C7.70563 18.4671 9.59816 16.5713 11.9244 16.5713H96.0759C98.4021 16.5713 100.295 18.4671 100.295 20.7974V87.2037C100.295 89.534 98.4021 91.4298 96.0759 91.4298ZM11.9244 18.6843C10.7613 18.6843 9.81501 19.6323 9.81501 20.7974V87.2037C9.81501 88.3689 10.7613 89.3168 11.9244 89.3168H96.0759C97.239 89.3168 98.1853 88.3689 98.1853 87.2037V20.7974C98.1853 19.6323 97.239 18.6843 96.0759 18.6843H11.9244Z" fill="#2626BC"/>
<path d="M18.0612 27.7295C19.3311 27.7295 20.3606 26.6982 20.3606 25.426C20.3606 24.1538 19.3311 23.1226 18.0612 23.1226C16.7912 23.1226 15.7617 24.1538 15.7617 25.426C15.7617 26.6982 16.7912 27.7295 18.0612 27.7295Z" fill="#FF5BA8"/>
<path d="M25.402 27.729C26.672 27.729 27.7015 26.6977 27.7015 25.4255C27.7015 24.1534 26.672 23.1221 25.402 23.1221C24.1321 23.1221 23.1026 24.1534 23.1026 25.4255C23.1026 26.6977 24.1321 27.729 25.402 27.729Z" fill="white"/>
<path d="M32.7426 27.729C34.0126 27.729 35.042 26.6977 35.042 25.4255C35.042 24.1534 34.0126 23.1221 32.7426 23.1221C31.4727 23.1221 30.4432 24.1534 30.4432 25.4255C30.4432 26.6977 31.4727 27.729 32.7426 27.729Z" fill="#02FFB3"/>
<path d="M91.1836 28.0133H62.4627V22.8374H91.1838C91.7662 22.8374 92.2385 23.3105 92.2385 23.8939V26.957C92.2383 27.5404 91.7662 28.0133 91.1836 28.0133Z" fill="#D2DEFF"/>
<path d="M62.604 22.9032C61.489 21.7862 59.6747 21.7862 58.5597 22.9032C57.4447 24.0201 57.4447 25.8376 58.5597 26.9545C59.4113 27.8076 60.6697 28.0068 61.7139 27.5572L62.631 28.4759C63.0428 28.8884 63.7108 28.8884 64.1226 28.4759C64.5343 28.0635 64.5343 27.3943 64.1226 26.9818L63.2054 26.063C63.6545 25.0168 63.4556 23.7562 62.604 22.9032ZM60.0513 24.3973C60.3438 24.1042 60.8199 24.1042 61.1125 24.3973C61.4051 24.6904 61.4051 25.1673 61.1125 25.4604C60.8199 25.7535 60.3438 25.7535 60.0513 25.4604C59.7587 25.1673 59.7587 24.6904 60.0513 24.3973Z" fill="white"/>
<path d="M27.3329 70.6484H15.4822C14.8998 70.6484 14.4275 71.1216 14.4275 71.705C14.4275 72.2884 14.8998 72.7615 15.4822 72.7615H27.3329C27.9153 72.7615 28.3876 72.2884 28.3876 71.705C28.3876 71.1216 27.9153 70.6484 27.3329 70.6484Z" fill="white"/>
<path d="M15.7617 38.4845C16.3444 38.4845 16.8168 38.0113 16.8168 37.4276C16.8168 36.8438 16.3444 36.3706 15.7617 36.3706C15.179 36.3706 14.7066 36.8438 14.7066 37.4276C14.7066 38.0113 15.179 38.4845 15.7617 38.4845Z" fill="white"/>
<path d="M15.7617 42.5343C16.3444 42.5343 16.8168 42.0611 16.8168 41.4774C16.8168 40.8936 16.3444 40.4204 15.7617 40.4204C15.179 40.4204 14.7066 40.8936 14.7066 41.4774C14.7066 42.0611 15.179 42.5343 15.7617 42.5343Z" fill="white"/>
<path d="M41.5698 12.2086C40.9874 12.2086 40.5151 11.7357 40.5151 11.152C40.5151 10.4528 39.9474 9.8842 39.2495 9.8842C38.6671 9.8842 38.1948 9.4113 38.1948 8.82767C38.1948 8.24405 38.6671 7.77114 39.2495 7.77114C39.9474 7.77114 40.5151 7.20252 40.5151 6.50331C40.5151 5.91968 40.9874 5.44678 41.5698 5.44678C42.1522 5.44678 42.6245 5.91968 42.6245 6.50331C42.6245 7.20252 43.1921 7.77114 43.8901 7.77114C44.4725 7.77114 44.9448 8.24405 44.9448 8.82767C44.9448 9.4113 44.4725 9.8842 43.8901 9.8842C43.1921 9.8842 42.6245 10.4528 42.6245 11.152C42.6245 11.7355 42.1522 12.2086 41.5698 12.2086Z" fill="#01ECA5"/>
<path d="M57.7017 103.755C57.1193 103.755 56.647 103.283 56.647 102.699C56.647 102 56.0793 101.431 55.3813 101.431C54.7989 101.431 54.3267 100.958 54.3267 100.375C54.3267 99.7909 54.7989 99.318 55.3813 99.318C56.0793 99.318 56.647 98.7494 56.647 98.0502C56.647 97.4666 57.1193 96.9937 57.7017 96.9937C58.2841 96.9937 58.7564 97.4666 58.7564 98.0502C58.7564 98.7494 59.324 99.318 60.022 99.318C60.6044 99.318 61.0767 99.7909 61.0767 100.375C61.0767 100.958 60.6044 101.431 60.022 101.431C59.324 101.431 58.7564 102 58.7564 102.699C58.7564 103.283 58.2843 103.755 57.7017 103.755Z" fill="#6583FE"/>
<path d="M30.5143 13.0025C29.9319 13.0025 29.4596 12.5296 29.4596 11.946C29.4596 11.2468 28.892 10.6782 28.194 10.6782C27.6116 10.6782 27.1393 10.2052 27.1393 9.62162C27.1393 9.03799 27.6116 8.56509 28.194 8.56509C28.892 8.56509 29.4596 7.99646 29.4596 7.29725C29.4596 6.71363 29.9319 6.24072 30.5143 6.24072C31.0967 6.24072 31.569 6.71363 31.569 7.29725C31.569 7.99646 32.1366 8.56509 32.8346 8.56509C33.417 8.56509 33.8893 9.03799 33.8893 9.62162C33.8893 10.2052 33.417 10.6782 32.8346 10.6782C32.1366 10.6782 31.569 11.2468 31.569 11.946C31.569 12.5296 31.0967 13.0025 30.5143 13.0025Z" fill="#FF5BA8"/>
<path d="M67.728 103.394C66.0658 103.394 64.7133 102.04 64.7133 100.374C64.7133 98.7092 66.0656 97.3545 67.728 97.3545C69.3904 97.3545 70.7427 98.7092 70.7427 100.374C70.7427 102.04 69.3902 103.394 67.728 103.394ZM67.728 99.4676C67.2289 99.4676 66.8226 99.8743 66.8226 100.374C66.8226 100.874 67.2287 101.281 67.728 101.281C68.2273 101.281 68.6333 100.874 68.6333 100.374C68.6333 99.8743 68.2271 99.4676 67.728 99.4676Z" fill="#FF5BA8"/>
<path d="M80.3336 12.6413C78.6714 12.6413 77.3189 11.2866 77.3189 9.62155C77.3189 7.95625 78.6712 6.60156 80.3336 6.60156C81.996 6.60156 83.3484 7.95625 83.3484 9.62155C83.3484 11.2866 81.996 12.6413 80.3336 12.6413ZM80.3336 8.71462C79.8346 8.71462 79.4283 9.1216 79.4283 9.62155C79.4283 10.1215 79.8343 10.5283 80.3336 10.5283C80.8329 10.5283 81.239 10.1215 81.239 9.62155C81.239 9.1216 80.8329 8.71462 80.3336 8.71462Z" fill="#6583FE"/>
<defs>
<linearGradient id="paint0_linear" x1="1.8462" y1="84.6734" x2="110.669" y2="21.9541" gradientUnits="userSpaceOnUse">
<stop stop-color="#DCFDEE" stop-opacity="0"/>
<stop offset="0.6288" stop-color="#D2F3E4"/>
</linearGradient>
</defs>
</svg>
