<svg width="108" height="108" viewBox="0 0 108 108" fill="none" xmlns="http://www.w3.org/2000/svg">
<g clip-path="url(#clip0)">
<path d="M85.8516 8.64844H22.1484C9.93549 8.64844 0 18.5839 0 30.7969V66.4338C0 78.6467 9.93549 88.5822 22.1484 88.5822H25.4353L33.1386 98.3554C33.7393 99.1167 34.6547 99.5609 35.6237 99.5609C36.5927 99.5609 37.509 99.1167 38.1088 98.3554L45.8122 88.5822H85.8516C98.0645 88.5822 108 78.6467 108 66.4338V30.7969C108 18.5839 98.0645 8.64844 85.8516 8.64844V8.64844Z" fill="#6787F5"/>
<path d="M85.8516 8.64844H54V88.5822H85.8516C98.0645 88.5822 108 78.6467 108 66.4338V30.7969C108 18.5839 98.0645 8.64844 85.8516 8.64844Z" fill="#38478A"/>
<path d="M42.1364 93.2457L45.8122 88.582L42.1364 93.2457Z" fill="white"/>
<path d="M108 34.6473H81.3963L101.2 14.8439C97.2158 11.0099 91.8048 8.64844 85.8516 8.64844H80.5476L67.973 21.2231V8.64844H40.0279V21.2231L27.4532 8.64844H22.1484C16.1952 8.64844 10.7842 11.0099 6.80026 14.8439L26.6037 34.6473H0V62.5924H26.6037L7.54349 81.6518L6.80438 82.3909C10.7883 86.2232 16.1977 88.5822 22.1484 88.5822H25.4353L26.3285 89.7152L39.6884 76.3544L39.4717 88.5822H67.9721V76.0512L80.4619 88.5822H85.8516C91.7768 88.5822 97.1656 86.2438 101.144 82.4411L100.399 81.693L81.3617 62.5924H108V34.6473Z" fill="white"/>
<path d="M108 34.6473H81.3963L101.2 14.8439C97.2158 11.0099 91.8048 8.64844 85.8516 8.64844H80.5476L67.973 21.2231V8.64844H54V88.5822H67.9721V76.0512L80.4619 88.5822H85.8516C91.7768 88.5822 97.1656 86.2438 101.144 82.4411L100.399 81.693L81.3617 62.5924H108V34.6473Z" fill="#C7D3ED"/>
<path d="M61.644 40.9754V8.64844H46.356V40.9754H0V56.2643H46.356L45.8122 88.5822H61.644V56.2643H108V40.9754H61.644Z" fill="#FF337A"/>
<path d="M61.644 40.9754V8.64844H54V88.5822H61.644V56.2643H108V40.9754H61.644Z" fill="#D1005B"/>
<path d="M42.1364 36.7559V32.2817L18.7619 8.90723C16.365 9.27637 14.0933 10.032 12.0127 11.1072L37.6622 36.7559H42.1364Z" fill="#FF337A"/>
<path d="M95.9873 11.1072C93.9067 10.032 91.635 9.27637 89.2381 8.90723L65.8636 32.2817V36.7559H70.3378L95.9873 11.1072Z" fill="#D1005B"/>
<path d="M12.0185 86.1266C14.0999 87.2011 16.3716 87.9559 18.7693 88.325L42.1364 64.9571V60.4829H37.6622L12.0185 86.1266Z" fill="#FF337A"/>
<path d="M65.8636 60.4829V64.9703L89.1508 88.3365C91.5526 87.9756 93.8301 87.2291 95.9164 86.1604L70.3254 60.4829H65.8636Z" fill="#D1005B"/>
</g>
<defs>
<clipPath id="clip0">
<rect width="108" height="108" fill="white"/>
</clipPath>
</defs>
</svg>
