<svg width="108" height="108" viewBox="0 0 108 108" fill="none" xmlns="http://www.w3.org/2000/svg">
<g clip-path="url(#clip0)">
<path d="M58.6474 85.3533L54.039 89.9617C52.7654 91.2353 50.7041 91.2353 49.4307 89.9617C48.157 88.688 48.157 86.6267 49.4307 85.3533L54.039 80.745C55.3103 79.4737 55.3103 77.4079 54.039 76.1366L49.8019 71.8995C48.5283 70.6259 48.5283 68.5646 49.8019 67.2912C51.0756 66.0175 53.1368 66.0175 54.4103 67.2912L58.6474 71.5283C62.4594 75.3399 62.4594 81.5413 58.6474 85.3533Z" fill="#713708"/>
<path d="M65.56 106.091C63.0148 108.636 58.8883 108.636 56.3433 106.091L33.3011 83.0489L42.5178 73.832L65.56 96.8742C68.1054 99.4194 68.1054 103.546 65.56 106.091Z" fill="#994C0F"/>
<path d="M33.1165 55.2134L47.4029 69.4998L47.1264 78.4401L30.9968 94.5697C27.1719 98.3946 20.9043 98.3026 17.0794 94.4773L7.86248 85.2604C4.08353 81.4814 4.12952 75.3522 7.95487 71.5273L24.0844 55.3977L33.1165 55.2134Z" fill="#FE318F"/>
<path d="M40.2138 62.311L47.4029 69.5002L47.1264 78.4406L30.9968 94.5701C27.1719 98.3951 20.9043 98.3031 17.0794 94.4777L12.563 89.9614L40.2138 62.311Z" fill="#FD0F7F"/>
<path d="M73.6159 13.0355C71.8181 13.0376 70.3578 11.5773 70.3578 9.77738L70.3557 3.25856C70.3553 1.45821 71.8135 2.28231e-06 73.6138 2.28231e-06C75.4116 -0.00210709 76.872 1.45821 76.872 3.25814L76.8741 9.77695C76.8743 11.5773 75.4163 13.0355 73.6159 13.0355Z" fill="#1BD9DE"/>
<path d="M99.6848 32.5877L93.166 32.5856C91.3659 32.5856 89.9054 31.1253 89.9079 29.3275C89.9079 27.5273 91.3661 26.0693 93.166 26.0693L99.6848 26.0714C101.485 26.0714 102.946 27.5318 102.943 29.3296C102.943 31.1295 101.485 32.5877 99.6848 32.5877Z" fill="#1BD9DE"/>
<path d="M95.515 7.00939C96.8053 8.2997 96.8056 10.3274 95.515 11.6177L88.6024 18.5304C87.3119 19.8209 85.2842 19.8207 83.9941 18.5304C82.7036 17.2399 82.7036 15.2123 83.9941 13.922L90.9067 7.00939C92.197 5.71887 94.2245 5.71887 95.515 7.00939Z" fill="#1BD9DE"/>
<path d="M56.3433 13.922L88.6024 46.1811C89.5242 47.1029 90.6761 56.8265 91.8742 57.0111L82.7959 58.9006C69.3392 61.5734 56.5739 68.9931 47.91 77.657L47.1266 78.4404L24.084 55.398L24.8674 54.6146C33.9924 45.4897 40.7204 33.4154 43.4854 19.5903L45.3748 10.1431L56.3433 13.922Z" fill="#CAE8F9"/>
<path d="M30.9966 71.5278C32.2869 72.8181 32.2871 74.8458 30.9966 76.1361L26.3883 80.7447C25.0978 82.0352 23.07 82.035 21.7799 80.7447C20.4894 79.4542 20.4894 77.4266 21.7799 76.1363L26.3883 71.528C27.6788 70.2375 29.7063 70.2375 30.9966 71.5278Z" fill="#E1E4FB"/>
<path d="M72.4728 30.0518L88.6024 46.1813C89.5242 47.1031 90.6761 56.8267 91.8742 57.0113L82.7959 58.9008C69.3392 61.5736 56.5739 68.9934 47.91 77.6572L47.1266 78.4406L35.6054 66.9194L72.4728 30.0518Z" fill="#B7E0F6"/>
<path d="M30.9966 71.5278C32.2869 72.8181 32.2872 74.8459 30.9966 76.1362L26.3883 80.7447C25.0978 82.0353 23.07 82.0351 21.7799 80.7447L30.9966 71.5278Z" fill="#C5C9F7"/>
<path d="M56.3433 4.70519L97.8193 46.1812C100.354 48.7158 100.354 52.8635 97.8193 55.3981C97.5428 55.6747 97.174 55.8588 96.8051 56.0432C95.3304 57.0574 93.5795 57.4259 91.874 57.0109C90.6761 56.8268 89.524 56.3199 88.6022 55.3981L47.1262 13.9219C46.066 12.8617 45.5593 11.5254 45.3748 10.143C45.1906 8.76047 45.4674 7.37756 46.1584 6.13366C46.4809 5.62657 46.7113 5.1199 47.1262 4.70498C49.6608 2.17057 53.8087 2.17057 56.3433 4.70519Z" fill="#FE318F"/>
<path d="M77.0812 25.4434L97.8191 46.1813C100.354 48.7159 100.354 52.8635 97.8191 55.3982C97.5425 55.6747 97.1738 55.8589 96.8049 56.0432C95.3302 57.0574 93.5792 57.4259 91.8738 57.011C90.6759 56.8268 89.5238 56.32 88.602 55.3982L67.8641 34.6603L77.0812 25.4434Z" fill="#FD0F7F"/>
</g>
<defs>
<clipPath id="clip0">
<rect width="108" height="108" fill="white"/>
</clipPath>
</defs>
</svg>
