<svg width="108" height="108" viewBox="0 0 108 108" fill="none" xmlns="http://www.w3.org/2000/svg">
<g clip-path="url(#clip0)">
<path d="M44.3574 80.7705V100.036H54L58.2187 89.9111L54 80.7705H44.3574Z" fill="#B4D2D7"/>
<path d="M54 80.7705H63.6426V100.036H54V80.7705Z" fill="#9BB9C3"/>
<path d="M0 -4.7998V69.9122L54 74.1309L60.3281 32.5562L54 -4.7998H0Z" fill="#07485E"/>
<path d="M108 -4.7998H54V74.1309L108 69.9122V-4.7998Z" fill="#04303E"/>
<path d="M0 69.9121V82.9622H54L58.2188 75.3564L54 69.9121H0Z" fill="#E1EBF0"/>
<path d="M54 69.9121H108V82.9622H54V69.9121Z" fill="#B4D2D7"/>
<path d="M54 103.2H27.6821V96.8721H54L56.1093 100.036L54 103.2Z" fill="#E1EBF0"/>
<path d="M54 96.8721H80.3178V103.2H54V96.8721Z" fill="#B4D2D7"/>
<path d="M69.9331 32.8115L66.1392 27.7469L74.0038 21.8552L66.1392 15.9635L69.9331 10.8989L82.3118 20.1722V23.5383L69.9331 32.8115Z" fill="#E1EBF0"/>
<path d="M38.0666 32.8115L25.6882 23.5383V20.1722L38.0666 10.8989L41.8607 15.9635L33.9962 21.8552L41.8607 27.7469L38.0666 32.8115Z" fill="#FFF5F5"/>
<path d="M45.9437 31.875L51.6995 34.5048L54 29.4695L56.1094 18.3472L54 14.2417L45.9437 31.875Z" fill="#FFF5F5"/>
<path d="M56.3005 9.20605L54 14.2416V29.4693L62.0563 11.8358L56.3005 9.20605Z" fill="#E1EBF0"/>
<path d="M39.1289 42.3447V48.6729H54L56.1094 45.5088L54 42.3447H39.1289Z" fill="#ADDBFD"/>
<path d="M54 42.3447H68.8713V48.6729H54V42.3447Z" fill="#93BDFC"/>
<path d="M33.4161 55.001V61.3291H54L56.1094 58.165L54 55.001H33.4161Z" fill="#ADDBFD"/>
<path d="M54 55.001H74.5839V61.3291H54V55.001Z" fill="#93BDFC"/>
</g>
<defs>
<clipPath id="clip0">
<rect width="108" height="108" fill="white"/>
</clipPath>
</defs>
</svg>
