<svg width="108" height="108" viewBox="0 0 108 108" fill="none" xmlns="http://www.w3.org/2000/svg">
<path d="M101.651 71.592C88.6146 98.9295 68.5546 104.836 54 104.836C37.6099 104.836 22.1693 96.6516 12.6771 83.2992C3.12205 69.8203 0.843501 52.7344 6.34897 36.4076L7.36168 34.3195C15.0818 15.9045 33.8132 3.16406 54 3.16406C70.39 3.16406 85.8306 11.3484 95.3228 24.7008C104.878 38.1797 107.156 55.2656 101.651 71.592Z" fill="#65B1FC"/>
<path d="M101.651 71.592C88.6146 98.9295 68.5547 104.836 54 104.836V3.16406C70.3901 3.16406 85.8307 11.3484 95.3229 24.7008C104.878 38.1797 107.156 55.2656 101.651 71.592Z" fill="#1689FC"/>
<path d="M97.9172 22.8654C87.7924 8.69042 71.4023 0 54 0C32.2945 0 12.4242 13.6266 4.26091 33.6865L3.18491 35.9016C-2.62536 53.5942 -0.363055 70.3525 10.0828 85.1342C20.2076 99.3092 36.5976 108 54 108C75.4523 108 95.0695 94.6898 103.486 75.0724L104.435 73.174C110.76 55.177 108.544 37.8882 97.9172 22.8654ZM15.2718 81.4639C6.28612 68.8076 4.19762 52.7977 9.38669 37.4203L10.2093 35.7115C15.3351 23.4349 25.5234 13.9219 37.6732 9.36541C30.0164 19.3641 25.3966 38.8123 25.9664 45.1404C25.9031 45.3305 25.8396 45.5201 25.8396 45.7734C24.1943 66.9724 29.0037 87.4336 38.0529 98.8875C29.0039 95.5967 20.9674 89.5008 15.2718 81.4639ZM50.8359 101.102C48.6213 100.343 46.4062 98.6766 44.3177 96.4615C35.4586 86.9062 30.5859 66.7195 32.1679 46.2795V45.7102C32.1679 45.5201 32.2312 45.2672 32.2312 45.0771C34.0662 25.3967 41.7867 9.87187 50.8359 6.89745V101.102ZM57.164 101.039V6.89745C66.9091 10.1248 75.0728 28.0545 76.0216 49.4435C76.9076 69.1873 71.9718 87.7287 63.4287 96.7148C61.4037 98.8029 59.3158 100.343 57.164 101.039ZM98.6133 70.5797C91.5257 85.5141 81.5273 94.7107 69.9471 98.8242C78.4265 88.1297 83.2359 69.0609 82.3498 49.1906C81.5904 32.3576 76.8443 17.8455 69.9468 9.1125C78.9961 12.4029 87.0326 18.4992 92.7279 26.5357C101.714 39.192 103.802 55.2023 98.6133 70.5797Z" fill="#96EBE6"/>
<path d="M97.9172 22.8654C87.7924 8.69042 71.4023 0 54 0V108C75.4523 108 95.0695 94.6898 103.486 75.0724L104.435 73.174C110.76 55.177 108.544 37.8882 97.9172 22.8654ZM57.1641 101.039V6.89745C66.9092 10.1248 75.0729 28.0545 76.0217 49.4435C76.9076 69.1873 71.9719 87.7287 63.4287 96.7148C61.4037 98.8029 59.3158 100.343 57.1641 101.039ZM98.6133 70.5797C91.5258 85.5141 81.5273 94.7107 69.9471 98.8242C78.4266 88.1297 83.2359 69.0609 82.3498 49.1906C81.5904 32.3576 76.8443 17.8455 69.9469 9.1125C78.9961 12.4029 87.0326 18.4992 92.7279 26.5357C101.714 39.192 103.802 55.2023 98.6133 70.5797Z" fill="#00C8C8"/>
<path d="M98.2969 31.8516H9.70312C4.45057 31.8516 0 36.0912 0 41.3438V66.6562C0 71.9084 4.45057 76.1484 9.70312 76.1484H98.2969C103.549 76.1484 108 71.9084 108 66.6562V41.3438C108 36.0912 103.549 31.8516 98.2969 31.8516Z" fill="#0053BF"/>
<path d="M108 41.3438V66.6562C108 71.9084 103.549 76.1484 98.2969 76.1484H54V31.8516H98.2969C103.549 31.8516 108 36.0912 108 41.3438Z" fill="#05377F"/>
<path d="M69.5039 49.0639L63.1758 61.7201C62.6063 62.7961 61.5305 63.4922 60.3281 63.4922C59.1258 63.4922 58.05 62.7961 57.4805 61.7201L54 54.7594L50.5195 61.7201C49.444 63.8719 45.8998 63.8719 44.824 61.7201L38.4959 49.0639C37.7365 47.5451 38.3695 45.6469 39.9516 44.8242C41.4703 44.0649 43.3686 44.6975 44.1912 46.2795L47.6719 53.2406L51.1524 46.2795C51.7221 45.2039 52.8612 44.6342 54 44.6342C55.1389 44.6342 56.2781 45.2039 56.8477 46.2795L60.3281 53.2406L63.8086 46.2795C64.6313 44.6975 66.5297 44.0649 68.0482 44.8242C69.6303 45.6469 70.2633 47.5451 69.5039 49.0639Z" fill="#E1F1FA"/>
<path d="M91.9688 63.4923C90.7698 63.4923 89.6761 62.8156 89.1384 61.7434L85.6406 54.7479L82.1429 61.7434C81.0675 63.8878 77.5575 63.8878 76.4822 61.7434L70.4198 49.6156C70.0275 49.1336 69.7739 48.5373 69.7307 47.8821C69.6195 46.1393 70.8461 44.6408 72.5887 44.5265C73.9113 44.4957 75.2461 45.1199 75.8145 46.2568L79.3125 53.2524L82.8103 46.2568C83.8856 44.1124 87.3956 44.1124 88.471 46.2568L91.9688 53.2524L95.4665 46.2568C96.2514 44.6902 98.1516 44.0692 99.7121 44.8416C101.276 45.6234 101.909 47.5237 101.127 49.0872L94.7991 61.7434C94.2615 62.8156 93.1677 63.4923 91.9688 63.4923Z" fill="#BFE1FF"/>
<path d="M35.2196 44.5141C33.9744 44.5016 32.7539 45.1197 32.1852 46.2568L28.6875 53.2524L25.1897 46.2568C24.05 43.9852 20.6562 44.0023 19.529 46.2568L16.0312 53.2524L12.5335 46.2568C11.7486 44.6902 9.84527 44.0692 8.28791 44.8416C6.72445 45.6234 6.091 47.5237 6.87274 49.0872L13.2009 61.7434C13.7385 62.8156 14.8323 63.4923 16.0312 63.4923C17.2302 63.4923 18.3239 62.8156 18.8616 61.7434L22.3593 54.7479L25.8571 61.7434C26.3948 62.8156 27.4885 63.4923 28.6875 63.4923C29.8864 63.4923 30.9802 62.8156 31.5178 61.7434L37.4783 49.8225C37.9295 49.3095 38.2199 48.6328 38.2693 47.8821C38.3805 46.1393 36.9623 44.6284 35.2196 44.5141Z" fill="#E1F1FA"/>
<path d="M69.5039 49.0639L63.1758 61.7201C62.6063 62.7961 61.5305 63.4922 60.3281 63.4922C59.1258 63.4922 58.05 62.7961 57.4805 61.7201L54 54.7594V44.6342C55.1391 44.6342 56.2781 45.2039 56.8477 46.2795L60.3281 53.2406L63.8086 46.2795C64.6313 44.6975 66.5297 44.0649 68.0482 44.8242C69.6303 45.6469 70.2633 47.5451 69.5039 49.0639Z" fill="#BFE1FF"/>
</svg>
