<svg width="108" height="108" viewBox="0 0 108 108" fill="none" xmlns="http://www.w3.org/2000/svg">
<g clip-path="url(#clip0)">
<path d="M100.8 28.7998H6.97506V98.5499H100.8V28.7998Z" fill="#FFD15C"/>
<path d="M94.0499 48.1499H59.8499V98.5498H94.0499V48.1499Z" fill="#415A6B"/>
<path d="M90.6749 51.5249H63.2249V95.1748H90.6749V51.5249Z" fill="#8AD7F8"/>
<path d="M0 21.6001V31.7251C0 37.8001 4.725 42.5251 10.8 42.5251C16.875 42.5251 21.6 37.8001 21.6 31.7251V21.6001H0Z" fill="#F05540"/>
<path d="M21.6 21.6001V31.7251C21.6 37.8001 26.325 42.5251 32.4 42.5251C38.475 42.5251 43.2 37.8001 43.2 31.7251V21.6001H21.6Z" fill="#E8EAE9"/>
<path d="M43.2 21.6001V31.7251C43.2 37.8001 47.925 42.5251 54 42.5251C60.075 42.5251 64.8 37.8001 64.8 31.7251V21.6001H43.2Z" fill="#F05540"/>
<path d="M64.8 21.6001V31.7251C64.8 37.8001 69.525 42.5251 75.6 42.5251C81.675 42.5251 86.4 37.8001 86.4 31.7251V21.6001H64.8Z" fill="#E8EAE9"/>
<path d="M86.4 21.6001V31.7251C86.4 37.8001 91.125 42.5251 97.2 42.5251C103.275 42.5251 108 37.8001 108 31.7251V21.6001H86.4Z" fill="#F05540"/>
<path d="M26.325 0H7.87493L0 21.6H21.6L26.325 0Z" fill="#F3705A"/>
<path d="M44.7751 0H26.325L21.6 21.6H43.2L44.7751 0Z" fill="#F3F3F3"/>
<path d="M63.2249 0H44.7751L43.2 21.6H64.8L63.2249 0Z" fill="#F3705A"/>
<path d="M81.675 0H63.2249L64.8 21.6H86.4L81.675 0Z" fill="#F3F3F3"/>
<path d="M100.125 0H81.675L86.4 21.6H108L100.125 0Z" fill="#F3705A"/>
<path d="M108 98.5498H0V108H108V98.5498Z" fill="#CED6E0"/>
<path d="M67.5 76.2749C69.1154 76.2749 70.425 74.9653 70.425 73.3499C70.425 71.7344 69.1154 70.4248 67.5 70.4248C65.8845 70.4248 64.5749 71.7344 64.5749 73.3499C64.5749 74.9653 65.8845 76.2749 67.5 76.2749Z" fill="#415A6B"/>
<path d="M51.7501 48.1499H13.7251V82.3498H51.7501V48.1499Z" fill="#415A6B"/>
<path d="M48.3751 51.5249H17.1001V78.9748H48.3751V51.5249Z" fill="#8AD7F8"/>
<path d="M33.5249 55.7998C33.075 55.3499 31.9498 55.3499 31.4999 55.7998L20.4751 66.8249C20.0251 67.2748 20.0251 68.4 20.4751 68.8499C20.925 69.2998 22.0501 69.2998 22.5001 68.8499L33.5251 57.8249C34.1999 57.1499 34.1999 56.25 33.5249 55.7998Z" fill="#55C0EB"/>
<path d="M36.0001 62.3252C35.5501 61.8753 34.425 61.8753 33.9751 62.3252L27 69.3001C26.5501 69.75 26.5501 70.8752 27 71.3251C27.4499 71.775 28.5751 71.775 29.025 71.3251L36.0001 64.35C36.6751 63.6752 36.6751 62.7752 36.0001 62.3252Z" fill="#55C0EB"/>
</g>
<defs>
<clipPath id="clip0">
<rect width="108" height="108" fill="white"/>
</clipPath>
</defs>
</svg>
